<mxfile host="app.diagrams.net" agent="Mozilla/5.0 (Windows NT 10.0; Win64; x64; rv:134.0) Gecko/20100101 Firefox/134.0" version="28.1.0">
  <diagram name="Seite-1" id="Cfv8pQ_fxaUjL9K2bP33">
    <mxGraphModel dx="815" dy="446" grid="1" gridSize="10" guides="1" tooltips="1" connect="1" arrows="1" fold="1" page="1" pageScale="1" pageWidth="827" pageHeight="1169" math="0" shadow="0">
      <root>
        <mxCell id="0" />
        <mxCell id="1" parent="0" />
        <mxCell id="Vx87H8JSH_DB4OTZwUf1-1" value="Nutzer" style="shape=umlActor;verticalLabelPosition=bottom;verticalAlign=top;html=1;outlineConnect=0;" parent="1" vertex="1">
          <mxGeometry x="50" y="212.5" width="50" height="85" as="geometry" />
        </mxCell>
        <mxCell id="Vx87H8JSH_DB4OTZwUf1-10" style="edgeStyle=orthogonalEdgeStyle;rounded=0;orthogonalLoop=1;jettySize=auto;html=1;" parent="1" target="Vx87H8JSH_DB4OTZwUf1-1" edge="1">
          <mxGeometry relative="1" as="geometry">
            <mxPoint x="199" y="290" as="sourcePoint" />
            <Array as="points">
              <mxPoint x="199" y="290" />
            </Array>
          </mxGeometry>
        </mxCell>
        <mxCell id="Vx87H8JSH_DB4OTZwUf1-12" value="Agentenantwort" style="edgeLabel;html=1;align=center;verticalAlign=middle;resizable=0;points=[];" parent="Vx87H8JSH_DB4OTZwUf1-10" vertex="1" connectable="0">
          <mxGeometry x="0.1114" y="-3" relative="1" as="geometry">
            <mxPoint x="12" y="11" as="offset" />
          </mxGeometry>
        </mxCell>
        <mxCell id="Vx87H8JSH_DB4OTZwUf1-2" value="" style="rounded=0;whiteSpace=wrap;html=1;fillColor=#dae8fc;strokeColor=light-dark(#000000, #5c79a3);" parent="1" vertex="1">
          <mxGeometry x="200" y="160" width="320" height="220" as="geometry" />
        </mxCell>
        <mxCell id="Vx87H8JSH_DB4OTZwUf1-3" value="Tools" style="rounded=1;whiteSpace=wrap;html=1;fillColor=#fff2cc;strokeColor=#000000;" parent="1" vertex="1">
          <mxGeometry x="414" y="170" width="96" height="160" as="geometry" />
        </mxCell>
        <mxCell id="Vx87H8JSH_DB4OTZwUf1-4" value="Sprachmodell" style="rounded=1;whiteSpace=wrap;html=1;fillColor=#f5f5f5;fontColor=#333333;strokeColor=light-dark(#000000, #959595);" parent="1" vertex="1">
          <mxGeometry x="210" y="340" width="300" height="30" as="geometry" />
        </mxCell>
        <mxCell id="Vx87H8JSH_DB4OTZwUf1-5" value="&amp;nbsp;&amp;nbsp;&amp;nbsp; Orchestrationsschicht" style="rounded=1;whiteSpace=wrap;html=1;fillColor=#d0cee2;strokeColor=light-dark(#000000, #a4a0c6);verticalAlign=top;align=center;" parent="1" vertex="1">
          <mxGeometry x="210" y="170" width="190" height="160" as="geometry" />
        </mxCell>
        <mxCell id="Vx87H8JSH_DB4OTZwUf1-6" value="Ziel und Instruktionen" style="rounded=1;whiteSpace=wrap;html=1;" parent="1" vertex="1">
          <mxGeometry x="230" y="200" width="150" height="30" as="geometry" />
        </mxCell>
        <mxCell id="Vx87H8JSH_DB4OTZwUf1-7" value="Kurz- &amp;amp; Langzeitspeicher" style="rounded=1;whiteSpace=wrap;html=1;" parent="1" vertex="1">
          <mxGeometry x="230" y="240" width="150" height="30" as="geometry" />
        </mxCell>
        <mxCell id="Vx87H8JSH_DB4OTZwUf1-8" value="Abfolgenplanung" style="rounded=1;whiteSpace=wrap;html=1;" parent="1" vertex="1">
          <mxGeometry x="230" y="280" width="150" height="30" as="geometry" />
        </mxCell>
        <mxCell id="Vx87H8JSH_DB4OTZwUf1-9" style="edgeStyle=orthogonalEdgeStyle;rounded=0;orthogonalLoop=1;jettySize=auto;html=1;" parent="1" source="Vx87H8JSH_DB4OTZwUf1-1" edge="1">
          <mxGeometry relative="1" as="geometry">
            <mxPoint x="200" y="230" as="targetPoint" />
            <Array as="points">
              <mxPoint x="200" y="230" />
            </Array>
          </mxGeometry>
        </mxCell>
        <mxCell id="Vx87H8JSH_DB4OTZwUf1-11" value="Nutzeranfrage" style="edgeLabel;html=1;align=center;verticalAlign=middle;resizable=0;points=[];" parent="Vx87H8JSH_DB4OTZwUf1-9" vertex="1" connectable="0">
          <mxGeometry x="-0.2239" y="2" relative="1" as="geometry">
            <mxPoint x="11" y="-8" as="offset" />
          </mxGeometry>
        </mxCell>
        <mxCell id="_uyjSUBjBy4oOOEStrtI-13" value="Nutzer" style="shape=umlActor;verticalLabelPosition=bottom;verticalAlign=top;html=1;outlineConnect=0;" vertex="1" parent="1">
          <mxGeometry x="50" y="492.5" width="50" height="85" as="geometry" />
        </mxCell>
        <mxCell id="_uyjSUBjBy4oOOEStrtI-14" style="edgeStyle=orthogonalEdgeStyle;rounded=0;orthogonalLoop=1;jettySize=auto;html=1;" edge="1" parent="1" target="_uyjSUBjBy4oOOEStrtI-13">
          <mxGeometry relative="1" as="geometry">
            <mxPoint x="199" y="570" as="sourcePoint" />
            <Array as="points">
              <mxPoint x="199" y="570" />
            </Array>
          </mxGeometry>
        </mxCell>
        <mxCell id="_uyjSUBjBy4oOOEStrtI-15" value="&lt;div&gt;&quot;Hier ist eine&amp;nbsp;&lt;/div&gt;&lt;div&gt;Liste von Fl端gen&amp;nbsp;&lt;/div&gt;&lt;div&gt;nach Berlin [...]&lt;/div&gt;" style="edgeLabel;html=1;align=center;verticalAlign=middle;resizable=0;points=[];" vertex="1" connectable="0" parent="_uyjSUBjBy4oOOEStrtI-14">
          <mxGeometry x="0.1114" y="-3" relative="1" as="geometry">
            <mxPoint x="12" y="24" as="offset" />
          </mxGeometry>
        </mxCell>
        <mxCell id="_uyjSUBjBy4oOOEStrtI-16" value="" style="rounded=0;whiteSpace=wrap;html=1;fillColor=#dae8fc;strokeColor=light-dark(#000000, #5c79a3);" vertex="1" parent="1">
          <mxGeometry x="200" y="440" width="320" height="220" as="geometry" />
        </mxCell>
        <mxCell id="_uyjSUBjBy4oOOEStrtI-17" value="Tools" style="rounded=1;whiteSpace=wrap;html=1;fillColor=#fff2cc;strokeColor=#000000;verticalAlign=top;" vertex="1" parent="1">
          <mxGeometry x="414" y="450" width="96" height="160" as="geometry" />
        </mxCell>
        <mxCell id="_uyjSUBjBy4oOOEStrtI-18" value="Sprachmodell" style="rounded=1;whiteSpace=wrap;html=1;fillColor=#f5f5f5;fontColor=#333333;strokeColor=light-dark(#000000, #959595);" vertex="1" parent="1">
          <mxGeometry x="210" y="620" width="300" height="30" as="geometry" />
        </mxCell>
        <mxCell id="_uyjSUBjBy4oOOEStrtI-19" value="&amp;nbsp;&amp;nbsp;&amp;nbsp; Orchestrationsschicht" style="rounded=1;whiteSpace=wrap;html=1;fillColor=#d0cee2;strokeColor=light-dark(#000000, #a4a0c6);verticalAlign=top;align=center;" vertex="1" parent="1">
          <mxGeometry x="210" y="450" width="190" height="160" as="geometry" />
        </mxCell>
        <mxCell id="_uyjSUBjBy4oOOEStrtI-20" value="&lt;font style=&quot;font-size: 10px;&quot;&gt;1. Verarbeitung Nutzereingabe&lt;/font&gt;" style="rounded=1;whiteSpace=wrap;html=1;align=left;" vertex="1" parent="1">
          <mxGeometry x="220" y="480" width="170" height="20" as="geometry" />
        </mxCell>
        <mxCell id="_uyjSUBjBy4oOOEStrtI-21" value="2. Tool-Aufruf &quot;Flugsuche&quot;" style="rounded=1;whiteSpace=wrap;html=1;fontSize=10;align=left;" vertex="1" parent="1">
          <mxGeometry x="220" y="510" width="170" height="20" as="geometry" />
        </mxCell>
        <mxCell id="_uyjSUBjBy4oOOEStrtI-22" value="&lt;font style=&quot;font-size: 10px;&quot;&gt;3. Verarbeitung Tool-R端ckgabewert&lt;/font&gt;" style="rounded=1;whiteSpace=wrap;html=1;align=left;" vertex="1" parent="1">
          <mxGeometry x="220" y="540" width="170" height="20" as="geometry" />
        </mxCell>
        <mxCell id="_uyjSUBjBy4oOOEStrtI-23" style="edgeStyle=orthogonalEdgeStyle;rounded=0;orthogonalLoop=1;jettySize=auto;html=1;" edge="1" parent="1" source="_uyjSUBjBy4oOOEStrtI-13">
          <mxGeometry relative="1" as="geometry">
            <mxPoint x="200" y="510" as="targetPoint" />
            <Array as="points">
              <mxPoint x="200" y="510" />
            </Array>
          </mxGeometry>
        </mxCell>
        <mxCell id="_uyjSUBjBy4oOOEStrtI-24" value="&lt;div&gt;&quot;Ich suche Fl端ge&lt;/div&gt;&lt;div&gt;&amp;nbsp;nach Berlin&lt;/div&gt;&lt;div&gt;&amp;nbsp;f端r morgen&quot;&lt;/div&gt;" style="edgeLabel;html=1;align=center;verticalAlign=middle;resizable=0;points=[];" vertex="1" connectable="0" parent="_uyjSUBjBy4oOOEStrtI-23">
          <mxGeometry x="-0.2239" y="2" relative="1" as="geometry">
            <mxPoint x="11" y="-22" as="offset" />
          </mxGeometry>
        </mxCell>
        <mxCell id="_uyjSUBjBy4oOOEStrtI-25" value="4. Ausgabe an Nutzer" style="rounded=1;whiteSpace=wrap;html=1;fontSize=10;align=left;" vertex="1" parent="1">
          <mxGeometry x="220" y="575" width="170" height="20" as="geometry" />
        </mxCell>
        <mxCell id="_uyjSUBjBy4oOOEStrtI-26" value="Flugsuche" style="rounded=1;whiteSpace=wrap;html=1;fillColor=#ffe6cc;strokeColor=#d79b00;" vertex="1" parent="1">
          <mxGeometry x="427" y="480" width="70" height="30" as="geometry" />
        </mxCell>
        <mxCell id="_uyjSUBjBy4oOOEStrtI-27" value="Fliegerinfo" style="rounded=1;whiteSpace=wrap;html=1;fillColor=#ffe6cc;strokeColor=#d79b00;" vertex="1" parent="1">
          <mxGeometry x="427" y="520" width="70" height="30" as="geometry" />
        </mxCell>
        <mxCell id="_uyjSUBjBy4oOOEStrtI-28" value="[...]" style="rounded=1;whiteSpace=wrap;html=1;fillColor=#ffe6cc;strokeColor=#d79b00;" vertex="1" parent="1">
          <mxGeometry x="427" y="560" width="70" height="30" as="geometry" />
        </mxCell>
      </root>
    </mxGraphModel>
  </diagram>
</mxfile>
